<svg width="43" height="43" viewBox="0 0 43 43" fill="none" xmlns="http://www.w3.org/2000/svg">
<path d="M21.6894 35.5909H7.83772C7.67096 35.5931 7.50544 35.5618 7.35094 35.4988C7.19644 35.4359 7.05608 35.3425 6.93815 35.2242C6.82022 35.106 6.72711 34.9652 6.66431 34.8103C6.60151 34.6554 6.57029 34.4894 6.5725 34.3222V20.4318C6.5725 16.4114 8.16517 12.5556 11.0001 9.71272C13.8351 6.86983 17.6802 5.27272 21.6894 5.27272V5.27272C23.6746 5.27272 25.6404 5.66482 27.4744 6.42664C29.3085 7.18845 30.975 8.30506 32.3787 9.71272C33.7825 11.1204 34.896 12.7915 35.6557 14.6307C36.4154 16.4699 36.8064 18.4411 36.8064 20.4318V20.4318C36.8064 22.4225 36.4154 24.3938 35.6557 26.2329C34.896 28.0721 33.7825 29.7433 32.3787 31.1509C30.975 32.5586 29.3085 33.6752 27.4744 34.437C25.6404 35.1988 23.6746 35.5909 21.6894 35.5909V35.5909Z" stroke="#00B37E" stroke-width="2" stroke-linecap="round" stroke-linejoin="round"/>
<path d="M16.4314 18.4545H26.2903" stroke="#996DFF" stroke-width="2" stroke-linecap="round" stroke-linejoin="round"/>
<path d="M16.4314 23.7273H26.2903" stroke="#996DFF" stroke-width="2" stroke-linecap="round" stroke-linejoin="round"/>
</svg>
